<?xml version='1.0' encoding='UTF-8'?>
<svg xmlns="http://www.w3.org/2000/svg" width="180" height="310" viewBox="0 0 180 310">
  <g transform="translate(0,310) rotate(-90)"><rect x="0" y="0" width="310" height="180" fill="#000000" />
  <path d="M 31.452 29.937 L 31.452 70.795 L 31.640 70.983 L 34.465 70.983 L 34.654 71.172 L 35.407 71.172 L 35.595 71.360 L 36.160 71.360 L 36.349 71.548 L 36.725 71.548 L 36.914 71.736 L 37.290 71.736 L 37.479 71.925 L 37.667 71.925 L 37.855 72.113 L 38.420 72.301 L 38.797 72.678 L 38.985 72.678 L 39.362 73.054 L 39.550 73.054 L 40.115 73.619 L 40.304 73.619 L 41.810 75.126 L 41.810 75.314 L 42.375 75.879 L 42.375 76.067 L 42.752 76.444 L 42.752 76.632 L 42.940 76.820 L 43.129 77.385 L 43.505 77.762 L 43.505 78.138 L 43.882 78.703 L 43.882 79.079 L 44.070 79.268 L 44.070 79.644 L 44.259 79.833 L 44.259 80.209 L 44.447 80.397 L 44.447 81.151 L 44.635 81.339 L 44.635 82.280 L 44.824 82.469 L 44.824 85.669 L 44.635 85.858 L 44.635 86.799 L 44.447 86.987 L 44.447 87.552 L 44.259 87.741 L 44.259 88.305 L 44.070 88.494 L 44.070 88.870 L 43.694 89.435 L 43.694 89.812 L 43.505 90.000 L 43.505 90.188 L 43.317 90.377 L 43.129 90.941 L 42.752 91.318 L 42.752 91.506 L 42.564 91.695 L 42.564 91.883 L 42.187 92.259 L 42.187 92.448 L 41.434 93.201 L 41.434 93.389 L 40.304 94.519 L 40.115 94.519 L 39.362 95.272 L 39.174 95.272 L 38.797 95.649 L 38.609 95.649 L 38.420 95.837 L 38.232 95.837 L 38.044 96.025 L 37.855 96.025 L 36.914 96.590 L 36.537 96.590 L 36.349 96.778 L 35.972 96.778 L 35.784 96.967 L 35.219 96.967 L 35.030 97.155 L 34.089 97.155 L 33.900 97.343 L 31.640 97.343 L 31.452 97.531 L 31.452 139.142 L 48.779 139.142 L 49.156 139.519 L 49.156 153.452 L 66.671 153.452 L 66.671 139.519 L 67.047 139.142 L 75.711 139.142 L 76.087 139.519 L 76.087 153.264 L 76.276 153.452 L 93.414 153.452 L 93.414 139.707 L 93.979 139.142 L 103.961 139.142 L 104.338 139.519 L 104.338 153.452 L 121.476 153.452 L 121.665 153.264 L 121.665 139.519 L 122.041 139.142 L 131.646 139.142 L 132.023 139.519 L 132.023 153.452 L 149.350 153.452 L 149.350 139.519 L 149.727 139.142 L 159.520 139.142 L 159.897 139.519 L 159.897 140.084 L 160.085 140.272 L 160.085 150.439 L 159.897 150.628 L 159.897 152.134 L 160.085 152.322 L 160.085 153.452 L 177.412 153.452 L 177.412 151.946 L 177.600 151.757 L 177.600 150.628 L 177.412 150.439 L 177.412 148.180 L 177.600 147.992 L 177.600 146.109 L 177.412 145.921 L 177.412 141.590 L 177.600 141.402 L 177.600 139.519 L 177.977 139.142 L 187.959 139.142 L 188.335 139.519 L 188.335 153.264 L 188.524 153.452 L 205.474 153.452 L 205.474 153.075 L 205.662 152.887 L 205.662 139.519 L 206.039 139.142 L 216.209 139.142 L 216.586 139.519 L 216.586 153.452 L 233.913 153.452 L 234.101 153.264 L 234.101 139.519 L 234.478 139.142 L 277.983 139.142 L 278.171 138.954 L 278.171 29.937 L 277.983 29.749 L 234.478 29.749 L 234.101 29.372 L 234.101 15.628 L 233.913 15.439 L 216.586 15.439 L 216.586 29.372 L 216.209 29.749 L 206.039 29.749 L 205.662 29.372 L 205.662 15.628 L 205.474 15.439 L 188.524 15.439 L 188.335 15.628 L 188.335 29.372 L 187.959 29.749 L 177.977 29.749 L 177.412 29.184 L 177.412 28.996 L 177.600 28.808 L 177.600 28.054 L 177.412 27.866 L 177.412 16.192 L 177.600 16.004 L 177.600 15.628 L 177.412 15.439 L 160.273 15.439 L 160.085 15.628 L 160.085 29.372 L 159.708 29.749 L 149.727 29.749 L 149.350 29.372 L 149.350 15.628 L 149.162 15.439 L 132.023 15.439 L 132.023 29.372 L 131.646 29.749 L 122.041 29.749 L 121.665 29.372 L 121.665 15.628 L 121.476 15.439 L 104.338 15.439 L 104.338 29.372 L 103.961 29.749 L 93.791 29.749 L 93.414 29.372 L 93.414 15.439 L 76.276 15.439 L 76.087 15.628 L 76.087 29.372 L 75.711 29.749 L 67.236 29.749 L 66.859 29.372 L 66.859 15.628 L 66.671 15.439 L 49.344 15.439 L 49.156 15.628 L 49.156 29.372 L 48.779 29.749 L 31.640 29.749 Z M 218.092 139.519 L 218.657 139.142 L 232.029 139.142 L 232.406 139.519 L 232.406 151.757 L 232.217 151.946 L 218.469 151.946 L 218.092 151.569 Z M 190.030 139.519 L 190.407 139.142 L 203.591 139.142 L 203.967 139.519 L 203.967 151.757 L 203.779 151.946 L 190.219 151.946 L 190.030 151.757 Z M 161.592 139.519 L 161.968 139.142 L 175.529 139.142 L 175.905 139.519 L 175.905 151.757 L 175.717 151.946 L 161.780 151.946 L 161.592 151.757 Z M 133.530 139.707 L 134.095 139.142 L 147.278 139.142 L 147.655 139.519 L 147.655 139.895 L 147.843 140.084 L 147.843 151.569 L 147.467 151.946 L 133.906 151.946 L 133.530 151.569 Z M 105.844 139.707 L 106.409 139.142 L 119.593 139.142 L 119.970 139.519 L 119.970 151.757 L 119.781 151.946 L 106.221 151.946 L 105.844 151.569 Z M 77.783 139.519 L 78.159 139.142 L 91.531 139.142 L 91.908 139.519 L 91.908 151.569 L 91.531 151.946 L 77.971 151.946 L 77.783 151.757 Z M 50.662 139.519 L 51.227 139.142 L 64.599 139.142 L 65.164 139.707 L 65.164 142.908 L 64.976 143.096 L 64.976 144.979 L 65.164 145.167 L 65.164 145.356 L 64.976 145.544 L 64.976 151.757 L 64.787 151.946 L 51.039 151.946 L 50.662 151.569 Z M 196.245 112.971 L 196.245 137.259 L 195.869 137.636 L 135.036 137.636 L 134.660 137.259 L 134.660 119.561 L 135.036 119.184 L 146.902 119.184 L 147.278 119.561 L 147.278 124.833 L 147.467 125.021 L 166.677 125.021 L 166.865 124.833 L 167.618 124.833 L 167.807 124.644 L 168.372 124.644 L 168.560 124.456 L 168.937 124.456 L 169.125 124.268 L 169.502 124.268 L 170.067 123.891 L 170.443 123.891 L 170.632 123.703 L 171.197 123.515 L 171.574 123.138 L 172.139 122.950 L 172.704 122.385 L 172.892 122.385 L 173.645 121.632 L 173.834 121.632 L 174.775 120.690 L 174.775 120.502 L 175.529 119.749 L 175.529 119.561 L 176.282 118.619 L 176.282 118.431 L 176.470 118.243 L 176.470 118.054 L 176.659 117.866 L 176.659 117.678 L 176.847 117.490 L 176.847 117.301 L 177.412 116.360 L 177.412 115.983 L 177.600 115.795 L 177.600 115.418 L 177.789 115.230 L 177.789 114.665 L 177.977 114.477 L 177.977 113.724 L 178.165 113.536 L 178.165 112.971 L 178.354 112.782 L 196.057 112.782 Z M 146.902 111.841 L 147.278 112.218 L 147.278 117.490 L 146.713 117.866 L 133.153 117.866 L 133.153 137.259 L 132.776 137.636 L 120.911 137.636 L 120.535 137.259 L 120.535 112.218 L 120.911 111.841 Z M 107.351 137.259 L 107.351 104.686 L 107.539 104.498 L 147.090 104.498 L 147.278 104.686 L 147.278 110.146 L 147.090 110.335 L 119.216 110.335 L 119.028 110.523 L 119.028 137.259 L 118.651 137.636 L 107.728 137.636 Z M 148.785 99.791 L 148.973 99.603 L 165.923 99.603 L 166.112 99.791 L 167.242 99.791 L 167.430 99.979 L 167.995 99.979 L 168.183 100.167 L 168.560 100.167 L 168.748 100.356 L 169.125 100.356 L 169.313 100.544 L 169.502 100.544 L 169.690 100.732 L 169.878 100.732 L 170.067 100.921 L 170.255 100.921 L 170.443 101.109 L 171.009 101.297 L 171.385 101.674 L 171.574 101.674 L 172.139 102.238 L 172.327 102.238 L 174.022 103.933 L 174.022 104.121 L 174.587 104.686 L 174.587 104.874 L 174.964 105.251 L 174.964 105.439 L 175.152 105.628 L 175.152 105.816 L 175.529 106.192 L 175.529 106.381 L 175.717 106.569 L 175.717 106.946 L 176.094 107.510 L 176.094 107.887 L 176.282 108.075 L 176.282 108.640 L 176.470 108.828 L 176.470 109.393 L 176.659 109.582 L 176.659 111.464 L 176.847 111.653 L 176.847 112.029 L 176.659 112.218 L 176.659 113.724 L 176.470 113.912 L 176.470 114.477 L 176.282 114.665 L 176.282 115.230 L 175.905 115.795 L 175.905 116.172 L 175.717 116.360 L 175.717 116.548 L 175.529 116.736 L 175.529 116.925 L 175.340 117.113 L 175.340 117.301 L 175.152 117.490 L 174.964 118.054 L 174.587 118.431 L 174.587 118.619 L 173.269 119.937 L 173.269 120.126 L 173.080 120.314 L 172.892 120.314 L 171.762 121.444 L 171.574 121.444 L 171.197 121.820 L 171.009 121.820 L 170.820 122.008 L 170.632 122.008 L 170.443 122.197 L 170.255 122.197 L 170.067 122.385 L 169.878 122.385 L 168.937 122.950 L 168.560 122.950 L 168.372 123.138 L 167.807 123.138 L 167.618 123.326 L 166.865 123.326 L 166.677 123.515 L 148.973 123.515 L 148.785 123.326 Z M 209.241 55.167 L 209.429 54.979 L 227.132 54.979 L 227.321 55.167 L 228.074 55.167 L 228.262 55.356 L 228.827 55.356 L 229.016 55.544 L 229.392 55.544 L 229.957 55.921 L 230.334 55.921 L 230.522 56.109 L 230.711 56.109 L 231.087 56.485 L 231.276 56.485 L 231.464 56.674 L 231.652 56.674 L 232.029 57.050 L 232.217 57.050 L 232.971 57.803 L 233.159 57.803 L 234.289 58.933 L 234.289 59.121 L 235.043 59.874 L 235.043 60.063 L 235.796 61.004 L 235.796 61.192 L 236.173 61.757 L 236.173 62.134 L 236.738 63.075 L 236.738 63.640 L 236.926 63.828 L 236.926 64.393 L 237.114 64.582 L 237.114 65.523 L 237.303 65.711 L 237.303 68.347 L 237.114 68.536 L 237.114 69.477 L 236.926 69.665 L 236.926 70.230 L 236.738 70.418 L 236.738 70.795 L 236.549 70.983 L 236.549 71.360 L 236.361 71.548 L 236.361 71.736 L 236.173 71.925 L 236.173 72.113 L 235.984 72.301 L 235.984 72.490 L 235.796 72.678 L 235.608 73.243 L 235.231 73.619 L 235.231 73.808 L 234.666 74.372 L 234.666 74.561 L 232.783 76.444 L 232.594 76.444 L 232.029 77.008 L 231.841 77.008 L 231.464 77.385 L 231.276 77.385 L 231.087 77.573 L 230.899 77.573 L 230.711 77.762 L 230.522 77.762 L 229.581 78.326 L 229.204 78.326 L 229.016 78.515 L 228.639 78.515 L 228.451 78.703 L 227.886 78.703 L 227.697 78.891 L 226.191 78.891 L 226.002 79.079 L 209.617 79.079 L 209.241 78.703 Z M 96.993 55.356 L 97.369 54.979 L 115.073 54.979 L 115.261 55.167 L 116.015 55.167 L 116.203 55.356 L 116.768 55.356 L 116.956 55.544 L 117.333 55.544 L 117.521 55.732 L 117.710 55.732 L 117.898 55.921 L 118.086 55.921 L 118.275 56.109 L 118.463 56.109 L 118.651 56.297 L 119.216 56.485 L 119.593 56.862 L 119.781 56.862 L 120.346 57.427 L 120.535 57.427 L 122.606 59.498 L 122.606 59.686 L 123.360 60.628 L 123.360 60.816 L 123.548 61.004 L 123.548 61.192 L 123.925 61.569 L 123.925 61.946 L 124.301 62.510 L 124.301 62.887 L 124.490 63.075 L 124.490 63.452 L 124.678 63.640 L 124.678 64.017 L 124.866 64.205 L 124.866 64.958 L 125.055 65.146 L 125.055 68.912 L 124.866 69.100 L 124.866 69.665 L 124.678 69.854 L 124.678 70.418 L 124.490 70.607 L 124.490 70.983 L 124.301 71.172 L 124.301 71.548 L 124.113 71.736 L 124.113 71.925 L 123.925 72.113 L 123.925 72.301 L 123.736 72.490 L 123.548 73.054 L 123.171 73.431 L 123.171 73.619 L 122.795 73.996 L 122.795 74.184 L 121.665 75.314 L 121.665 75.502 L 121.100 76.067 L 120.911 76.067 L 120.158 76.820 L 119.970 76.820 L 119.028 77.573 L 118.840 77.573 L 117.898 78.138 L 117.521 78.138 L 116.956 78.515 L 116.580 78.515 L 116.391 78.703 L 115.638 78.703 L 115.450 78.891 L 114.320 78.891 L 114.131 79.079 L 97.369 79.079 L 96.993 78.703 Z M 197.564 31.632 L 197.940 31.255 L 224.684 31.255 L 225.061 31.632 L 225.061 53.096 L 224.684 53.473 L 207.922 53.473 L 207.734 53.661 L 207.734 57.615 L 207.546 57.803 L 197.752 57.803 L 197.564 57.615 Z M 183.627 31.255 L 195.680 31.255 L 196.057 31.632 L 196.057 59.310 L 207.357 59.310 L 207.734 59.686 L 207.734 65.146 L 207.357 65.523 L 183.627 65.523 L 183.250 65.146 L 183.250 31.632 Z M 170.820 31.255 L 181.367 31.255 L 181.744 31.632 L 181.744 66.841 L 181.932 67.029 L 207.546 67.029 L 207.734 67.218 L 207.734 72.678 L 207.357 73.054 L 170.820 73.054 L 170.443 72.678 L 170.443 31.632 Z M 114.508 31.255 L 140.310 31.255 L 140.687 31.632 L 140.687 66.841 L 140.310 67.218 L 126.750 67.218 L 126.561 67.029 L 126.561 65.335 L 126.373 65.146 L 126.373 64.205 L 126.185 64.017 L 126.185 63.452 L 125.996 63.264 L 125.996 62.887 L 125.808 62.699 L 125.808 62.322 L 125.431 61.757 L 125.431 61.381 L 125.243 61.192 L 125.243 61.004 L 125.055 60.816 L 124.866 60.251 L 124.490 59.874 L 124.301 59.310 L 123.736 58.745 L 123.736 58.556 L 121.476 56.297 L 121.288 56.297 L 120.723 55.732 L 120.535 55.732 L 120.158 55.356 L 119.970 55.356 L 119.781 55.167 L 119.593 55.167 L 119.405 54.979 L 119.216 54.979 L 119.028 54.791 L 118.840 54.791 L 117.898 54.226 L 117.521 54.226 L 117.333 54.038 L 116.956 54.038 L 116.768 53.849 L 116.203 53.849 L 116.015 53.661 L 115.261 53.661 L 115.073 53.473 L 114.508 53.473 L 114.131 53.096 L 114.131 31.632 Z M 85.504 31.444 L 85.693 31.255 L 112.248 31.255 L 112.625 31.632 L 112.625 53.096 L 112.248 53.473 L 95.674 53.473 L 95.486 53.661 L 95.486 57.615 L 95.298 57.803 L 85.693 57.803 L 85.504 57.615 L 85.504 51.402 L 85.316 51.213 L 85.316 50.460 L 85.504 50.272 L 85.504 49.142 L 85.316 48.954 L 85.316 47.259 L 85.504 47.071 L 85.504 37.092 L 85.316 36.904 L 85.316 33.515 L 85.504 33.326 Z M 72.697 31.255 L 83.433 31.255 L 83.809 31.632 L 83.809 59.121 L 83.998 59.310 L 95.109 59.310 L 95.486 59.686 L 95.486 65.146 L 95.109 65.523 L 72.886 65.523 L 72.321 65.146 L 72.321 31.632 Z M 60.079 31.255 L 70.437 31.255 L 70.814 31.632 L 70.814 66.841 L 71.002 67.029 L 95.298 67.029 L 95.486 67.218 L 95.486 72.866 L 95.298 73.054 L 60.079 73.054 L 59.702 72.678 L 59.702 31.632 Z M 33.147 31.632 L 33.524 31.255 L 57.819 31.255 L 58.196 31.632 L 58.196 74.372 L 58.384 74.561 L 95.298 74.561 L 95.486 74.749 L 95.486 80.209 L 95.863 80.586 L 100.383 80.586 L 100.571 80.397 L 100.759 80.397 L 100.948 80.586 L 106.409 80.586 L 106.598 80.397 L 108.104 80.397 L 108.293 80.586 L 113.755 80.586 L 113.943 80.397 L 115.450 80.397 L 115.638 80.209 L 116.391 80.209 L 116.580 80.021 L 116.956 80.021 L 117.145 79.833 L 117.521 79.833 L 117.710 79.644 L 118.086 79.644 L 118.651 79.268 L 119.028 79.268 L 119.216 79.079 L 119.405 79.079 L 119.781 78.703 L 119.970 78.703 L 120.158 78.515 L 120.346 78.515 L 120.723 78.138 L 120.911 78.138 L 121.665 77.385 L 121.853 77.385 L 123.360 75.879 L 123.360 75.690 L 124.113 74.937 L 124.301 74.372 L 124.678 73.996 L 124.678 73.808 L 124.866 73.619 L 124.866 73.431 L 125.055 73.243 L 125.055 73.054 L 125.620 72.113 L 125.620 71.736 L 125.996 71.172 L 125.996 70.607 L 126.185 70.418 L 126.185 69.854 L 126.373 69.665 L 126.373 69.100 L 126.561 68.912 L 127.126 68.912 L 127.315 68.724 L 142.193 68.724 L 142.193 31.632 L 142.570 31.255 L 168.560 31.255 L 168.937 31.632 L 168.937 74.372 L 169.125 74.561 L 207.546 74.561 L 207.734 74.749 L 207.734 80.397 L 207.922 80.397 L 208.111 80.586 L 226.002 80.586 L 226.191 80.397 L 227.697 80.397 L 227.886 80.209 L 228.451 80.209 L 228.639 80.021 L 229.204 80.021 L 229.392 79.833 L 229.769 79.833 L 229.957 79.644 L 230.334 79.644 L 230.522 79.456 L 230.711 79.456 L 230.899 79.268 L 231.087 79.268 L 231.276 79.079 L 231.464 79.079 L 231.652 78.891 L 232.217 78.703 L 232.594 78.326 L 232.783 78.326 L 233.159 77.950 L 233.348 77.950 L 234.854 76.444 L 235.043 76.444 L 235.231 76.255 L 235.231 76.067 L 235.984 75.314 L 235.984 75.126 L 236.549 74.561 L 236.549 74.372 L 236.738 74.184 L 236.926 73.619 L 237.303 73.243 L 237.303 72.866 L 237.491 72.678 L 237.491 72.490 L 238.056 71.548 L 238.056 71.172 L 238.244 70.983 L 238.244 70.418 L 238.433 70.230 L 238.433 69.665 L 238.621 69.477 L 238.621 68.159 L 238.809 67.971 L 238.809 65.900 L 238.621 65.711 L 238.621 64.582 L 238.433 64.393 L 238.433 63.640 L 238.244 63.452 L 238.244 63.075 L 238.056 62.887 L 238.056 62.510 L 237.868 62.322 L 237.868 61.946 L 237.679 61.757 L 237.679 61.569 L 237.491 61.381 L 237.491 61.192 L 237.303 61.004 L 237.303 60.816 L 237.114 60.628 L 236.926 60.063 L 236.549 59.686 L 236.549 59.498 L 236.173 59.121 L 236.173 58.933 L 235.608 58.368 L 235.608 58.180 L 233.913 56.485 L 233.724 56.485 L 233.159 55.921 L 232.971 55.921 L 232.029 55.167 L 231.841 55.167 L 231.652 54.979 L 231.464 54.979 L 230.522 54.414 L 230.146 54.414 L 229.957 54.226 L 229.581 54.226 L 229.392 54.038 L 229.016 54.038 L 228.827 53.849 L 228.262 53.849 L 228.074 53.661 L 227.321 53.661 L 227.132 53.473 L 226.756 53.473 L 226.567 53.285 L 226.567 31.632 L 226.944 31.255 L 276.100 31.255 L 276.476 31.632 L 276.476 137.259 L 275.911 137.636 L 198.129 137.636 L 197.752 137.259 L 197.752 111.276 L 197.564 111.088 L 178.354 111.088 L 178.165 110.900 L 178.165 109.770 L 177.977 109.582 L 177.977 108.640 L 177.789 108.452 L 177.789 108.075 L 177.600 107.887 L 177.600 107.322 L 177.224 106.757 L 177.224 106.381 L 177.035 106.192 L 177.035 106.004 L 176.847 105.816 L 176.659 105.251 L 176.282 104.874 L 176.282 104.686 L 176.094 104.498 L 175.905 103.933 L 175.152 103.180 L 175.152 102.992 L 173.269 101.109 L 173.080 101.109 L 172.515 100.544 L 172.327 100.544 L 171.385 99.791 L 171.197 99.791 L 171.009 99.603 L 170.820 99.603 L 169.878 99.038 L 169.502 99.038 L 169.313 98.849 L 168.937 98.849 L 168.748 98.661 L 168.372 98.661 L 168.183 98.473 L 167.618 98.473 L 167.430 98.285 L 166.488 98.285 L 166.300 98.096 L 147.467 98.096 L 147.278 98.285 L 147.278 102.803 L 147.090 102.992 L 106.033 102.992 L 105.844 103.180 L 105.844 137.259 L 105.468 137.636 L 33.524 137.636 L 33.147 137.259 L 33.147 99.226 L 33.524 98.849 L 34.842 98.849 L 35.030 98.661 L 35.784 98.661 L 35.972 98.473 L 36.349 98.473 L 36.537 98.285 L 37.102 98.285 L 38.044 97.720 L 38.420 97.720 L 38.609 97.531 L 39.174 97.343 L 39.550 96.967 L 39.739 96.967 L 40.115 96.590 L 40.304 96.590 L 40.869 96.025 L 41.057 96.025 L 42.940 94.142 L 42.940 93.954 L 43.505 93.389 L 43.505 93.201 L 44.259 92.259 L 44.259 92.071 L 44.447 91.883 L 44.447 91.695 L 44.635 91.506 L 44.635 91.318 L 44.824 91.130 L 44.824 90.941 L 45.389 90.000 L 45.389 89.623 L 45.577 89.435 L 45.577 89.059 L 45.765 88.870 L 45.765 88.494 L 45.954 88.305 L 45.954 87.741 L 46.142 87.552 L 46.142 86.799 L 46.330 86.611 L 46.330 85.293 L 46.519 85.105 L 46.519 82.845 L 46.330 82.657 L 46.330 81.339 L 46.142 81.151 L 46.142 80.397 L 45.954 80.209 L 45.954 79.644 L 45.765 79.456 L 45.765 79.079 L 45.577 78.891 L 45.577 78.515 L 45.389 78.326 L 45.389 77.950 L 45.012 77.385 L 45.012 77.008 L 44.824 76.820 L 44.635 76.255 L 44.259 75.879 L 44.259 75.690 L 44.070 75.502 L 44.070 75.314 L 43.694 74.937 L 43.694 74.749 L 42.940 73.996 L 42.940 73.808 L 41.434 72.301 L 41.245 72.301 L 40.680 71.736 L 40.492 71.736 L 39.550 70.983 L 39.362 70.983 L 39.174 70.795 L 38.985 70.795 L 38.044 70.230 L 37.667 70.230 L 37.479 70.042 L 37.102 70.042 L 36.914 69.854 L 36.537 69.854 L 36.349 69.665 L 35.595 69.665 L 35.407 69.477 L 33.524 69.477 L 33.147 69.100 Z M 218.092 17.510 L 218.469 17.134 L 232.217 17.134 L 232.406 17.322 L 232.406 29.372 L 232.029 29.749 L 218.469 29.749 L 218.092 29.372 Z M 190.030 17.322 L 190.219 17.134 L 203.779 17.134 L 203.967 17.322 L 203.967 29.372 L 203.591 29.749 L 190.407 29.749 L 190.030 29.372 Z M 161.780 17.322 L 161.968 17.134 L 175.717 17.134 L 175.905 17.322 L 175.905 29.372 L 175.529 29.749 L 162.157 29.749 L 161.780 29.372 Z M 133.718 17.322 L 133.906 17.134 L 147.467 17.134 L 147.843 17.699 L 147.843 29.184 L 147.655 29.372 L 147.655 29.561 L 147.467 29.749 L 133.906 29.749 L 133.530 29.184 L 133.530 18.640 L 133.718 18.452 Z M 105.844 17.510 L 106.221 17.134 L 119.781 17.134 L 119.970 17.322 L 119.970 29.372 L 119.593 29.749 L 106.409 29.749 L 106.221 29.561 L 106.033 29.561 L 105.844 29.372 Z M 77.783 17.322 L 77.971 17.134 L 91.719 17.134 L 91.908 17.322 L 91.908 29.372 L 91.531 29.749 L 78.159 29.749 L 77.783 29.372 Z M 50.851 17.322 L 51.039 17.134 L 64.976 17.134 L 65.164 17.322 L 65.164 29.372 L 64.787 29.749 L 51.227 29.749 L 50.851 29.372 Z" fill="#ffffff" fill-rule="evenodd" />
</g></svg>