<svg xmlns="http://www.w3.org/2000/svg" width="180" height="310" viewBox="0 0 180 310"><rect width="180" height="310" fill="#000000"/><g transform="translate(0,310) rotate(-90)"><rect width="310" height="180" fill="#000000"/><g><rect x="68.0" y="27" width="8" height="18" fill="none" stroke="#ffffff" stroke-width="1.5"/><text x="72.0" y="22" fill="#ffffff" font-family="Arial,Helvetica,sans-serif" font-size="7.1" font-weight="normal" text-anchor="middle">1 1A</text><rect x="95.66666666666667" y="27" width="8" height="18" fill="none" stroke="#ffffff" stroke-width="1.5"/><text x="99.66666666666667" y="22" fill="#ffffff" font-family="Arial,Helvetica,sans-serif" font-size="7.1" font-weight="normal" text-anchor="middle">2 1B</text><rect x="123.33333333333334" y="27" width="8" height="18" fill="none" stroke="#ffffff" stroke-width="1.5"/><text x="127.33333333333334" y="22" fill="#ffffff" font-family="Arial,Helvetica,sans-serif" font-size="7.1" font-weight="normal" text-anchor="middle">3 1Y</text><rect x="151.0" y="27" width="8" height="18" fill="none" stroke="#ffffff" stroke-width="1.5"/><text x="155.0" y="22" fill="#ffffff" font-family="Arial,Helvetica,sans-serif" font-size="7.1" font-weight="normal" text-anchor="middle">4 2A</text><rect x="178.66666666666669" y="27" width="8" height="18" fill="none" stroke="#ffffff" stroke-width="1.5"/><text x="182.66666666666669" y="22" fill="#ffffff" font-family="Arial,Helvetica,sans-serif" font-size="7.1" font-weight="normal" text-anchor="middle">5 2B</text><rect x="206.33333333333334" y="27" width="8" height="18" fill="none" stroke="#ffffff" stroke-width="1.5"/><text x="210.33333333333334" y="22" fill="#ffffff" font-family="Arial,Helvetica,sans-serif" font-size="7.1" font-weight="normal" text-anchor="middle">6 2Y</text><rect x="234.0" y="27" width="8" height="18" fill="none" stroke="#ffffff" stroke-width="1.5"/><text x="238.0" y="22" fill="#ffffff" font-family="Arial,Helvetica,sans-serif" font-size="7.1" font-weight="normal" text-anchor="middle">7 GND</text><rect x="68.0" y="135" width="8" height="18" fill="none" stroke="#ffffff" stroke-width="1.5"/><text x="72.0" y="166" fill="#ffffff" font-family="Arial,Helvetica,sans-serif" font-size="7.1" font-weight="normal" text-anchor="middle">14 VCC</text><rect x="95.66666666666667" y="135" width="8" height="18" fill="none" stroke="#ffffff" stroke-width="1.5"/><text x="99.66666666666667" y="166" fill="#ffffff" font-family="Arial,Helvetica,sans-serif" font-size="7.1" font-weight="normal" text-anchor="middle">13 4B</text><rect x="123.33333333333334" y="135" width="8" height="18" fill="none" stroke="#ffffff" stroke-width="1.5"/><text x="127.33333333333334" y="166" fill="#ffffff" font-family="Arial,Helvetica,sans-serif" font-size="7.1" font-weight="normal" text-anchor="middle">12 4A</text><rect x="151.0" y="135" width="8" height="18" fill="none" stroke="#ffffff" stroke-width="1.5"/><text x="155.0" y="166" fill="#ffffff" font-family="Arial,Helvetica,sans-serif" font-size="7.1" font-weight="normal" text-anchor="middle">11 4Y</text><rect x="178.66666666666669" y="135" width="8" height="18" fill="none" stroke="#ffffff" stroke-width="1.5"/><text x="182.66666666666669" y="166" fill="#ffffff" font-family="Arial,Helvetica,sans-serif" font-size="7.1" font-weight="normal" text-anchor="middle">10 3B</text><rect x="206.33333333333334" y="135" width="8" height="18" fill="none" stroke="#ffffff" stroke-width="1.5"/><text x="210.33333333333334" y="166" fill="#ffffff" font-family="Arial,Helvetica,sans-serif" font-size="7.1" font-weight="normal" text-anchor="middle">9 3A</text><rect x="234.0" y="135" width="8" height="18" fill="none" stroke="#ffffff" stroke-width="1.5"/><text x="238.0" y="166" fill="#ffffff" font-family="Arial,Helvetica,sans-serif" font-size="7.1" font-weight="normal" text-anchor="middle">8 3Y</text><path d="M 65 45 H 265 V 135 H 65 V 105 C 79 103, 79 77, 65 75 Z" fill="none" stroke="#ffffff" stroke-width="2.2"/><path d="M93,60 H108.3 C123.6,60 123.6,82 108.3,82 H93 Z" fill="none" stroke="#ffffff" stroke-width="1.7"/><circle cx="124.28" cy="71.0" r="2.6" fill="#000000" stroke="#ffffff" stroke-width="1.5"/><path d="M100,66 h6 v4 h-6 v4 h6" fill="none" stroke="#ffffff" stroke-width="1.2"/><line class="wire" x1="83" y1="67" x2="93" y2="67" stroke="#ffffff" stroke-width="1.8" stroke-linecap="round"/><line class="wire" x1="83" y1="75" x2="93" y2="75" stroke="#ffffff" stroke-width="1.8" stroke-linecap="round"/><line class="wire" x1="127" y1="71" x2="141" y2="71" stroke="#ffffff" stroke-width="1.8" stroke-linecap="round"/><path d="M171,60 H186.3 C201.6,60 201.6,82 186.3,82 H171 Z" fill="none" stroke="#ffffff" stroke-width="1.7"/><circle cx="202.28" cy="71.0" r="2.6" fill="#000000" stroke="#ffffff" stroke-width="1.5"/><path d="M178,66 h6 v4 h-6 v4 h6" fill="none" stroke="#ffffff" stroke-width="1.2"/><line class="wire" x1="161" y1="67" x2="171" y2="67" stroke="#ffffff" stroke-width="1.8" stroke-linecap="round"/><line class="wire" x1="161" y1="75" x2="171" y2="75" stroke="#ffffff" stroke-width="1.8" stroke-linecap="round"/><line class="wire" x1="205" y1="71" x2="219" y2="71" stroke="#ffffff" stroke-width="1.8" stroke-linecap="round"/><path d="M93,96 H108.3 C123.6,96 123.6,118 108.3,118 H93 Z" fill="none" stroke="#ffffff" stroke-width="1.7"/><circle cx="124.28" cy="107.0" r="2.6" fill="#000000" stroke="#ffffff" stroke-width="1.5"/><path d="M100,102 h6 v4 h-6 v4 h6" fill="none" stroke="#ffffff" stroke-width="1.2"/><line class="wire" x1="83" y1="103" x2="93" y2="103" stroke="#ffffff" stroke-width="1.8" stroke-linecap="round"/><line class="wire" x1="83" y1="111" x2="93" y2="111" stroke="#ffffff" stroke-width="1.8" stroke-linecap="round"/><line class="wire" x1="127" y1="107" x2="141" y2="107" stroke="#ffffff" stroke-width="1.8" stroke-linecap="round"/><path d="M171,96 H186.3 C201.6,96 201.6,118 186.3,118 H171 Z" fill="none" stroke="#ffffff" stroke-width="1.7"/><circle cx="202.28" cy="107.0" r="2.6" fill="#000000" stroke="#ffffff" stroke-width="1.5"/><path d="M178,102 h6 v4 h-6 v4 h6" fill="none" stroke="#ffffff" stroke-width="1.2"/><line class="wire" x1="161" y1="103" x2="171" y2="103" stroke="#ffffff" stroke-width="1.8" stroke-linecap="round"/><line class="wire" x1="161" y1="111" x2="171" y2="111" stroke="#ffffff" stroke-width="1.8" stroke-linecap="round"/><line class="wire" x1="205" y1="107" x2="219" y2="107" stroke="#ffffff" stroke-width="1.8" stroke-linecap="round"/></g></g></svg>