<svg xmlns="http://www.w3.org/2000/svg" width="310" height="180" viewBox="0 0 310 180"><rect width="310" height="180" fill="#000000"/><rect x="66.8" y="27" width="6.4" height="18" fill="none" stroke="#ffffff" stroke-width="1.35"/><text x="70.0" y="21.3" fill="#ffffff" font-family="Arial,Helvetica,sans-serif" font-size="6.2" font-weight="normal" text-anchor="middle">1 S2</text><rect x="91.08571428571427" y="27" width="6.4" height="18" fill="none" stroke="#ffffff" stroke-width="1.35"/><text x="94.28571428571428" y="21.3" fill="#ffffff" font-family="Arial,Helvetica,sans-serif" font-size="6.2" font-weight="normal" text-anchor="middle">2 B2</text><rect x="115.37142857142857" y="27" width="6.4" height="18" fill="none" stroke="#ffffff" stroke-width="1.35"/><text x="118.57142857142857" y="21.3" fill="#ffffff" font-family="Arial,Helvetica,sans-serif" font-size="6.2" font-weight="normal" text-anchor="middle">3 A2</text><rect x="139.65714285714287" y="27" width="6.4" height="18" fill="none" stroke="#ffffff" stroke-width="1.35"/><text x="142.85714285714286" y="21.3" fill="#ffffff" font-family="Arial,Helvetica,sans-serif" font-size="6.2" font-weight="normal" text-anchor="middle">4 S1</text><rect x="163.94285714285715" y="27" width="6.4" height="18" fill="none" stroke="#ffffff" stroke-width="1.35"/><text x="167.14285714285714" y="21.3" fill="#ffffff" font-family="Arial,Helvetica,sans-serif" font-size="6.2" font-weight="normal" text-anchor="middle">5 A1</text><rect x="188.22857142857143" y="27" width="6.4" height="18" fill="none" stroke="#ffffff" stroke-width="1.35"/><text x="191.42857142857142" y="21.3" fill="#ffffff" font-family="Arial,Helvetica,sans-serif" font-size="6.2" font-weight="normal" text-anchor="middle">6 B1</text><rect x="212.51428571428573" y="27" width="6.4" height="18" fill="none" stroke="#ffffff" stroke-width="1.35"/><text x="215.71428571428572" y="21.3" fill="#ffffff" font-family="Arial,Helvetica,sans-serif" font-size="6.2" font-weight="normal" text-anchor="middle">7 C0</text><rect x="236.8" y="27" width="6.4" height="18" fill="none" stroke="#ffffff" stroke-width="1.35"/><text x="240.0" y="21.3" fill="#ffffff" font-family="Arial,Helvetica,sans-serif" font-size="6.2" font-weight="normal" text-anchor="middle">8 GND</text><rect x="66.8" y="135" width="6.4" height="18" fill="none" stroke="#ffffff" stroke-width="1.35"/><text x="70.0" y="166" fill="#ffffff" font-family="Arial,Helvetica,sans-serif" font-size="6.2" font-weight="normal" text-anchor="middle">16 VCC</text><rect x="91.08571428571427" y="135" width="6.4" height="18" fill="none" stroke="#ffffff" stroke-width="1.35"/><text x="94.28571428571428" y="166" fill="#ffffff" font-family="Arial,Helvetica,sans-serif" font-size="6.2" font-weight="normal" text-anchor="middle">15 B3</text><rect x="115.37142857142857" y="135" width="6.4" height="18" fill="none" stroke="#ffffff" stroke-width="1.35"/><text x="118.57142857142857" y="166" fill="#ffffff" font-family="Arial,Helvetica,sans-serif" font-size="6.2" font-weight="normal" text-anchor="middle">14 A3</text><rect x="139.65714285714287" y="135" width="6.4" height="18" fill="none" stroke="#ffffff" stroke-width="1.35"/><text x="142.85714285714286" y="166" fill="#ffffff" font-family="Arial,Helvetica,sans-serif" font-size="6.2" font-weight="normal" text-anchor="middle">13 S3</text><rect x="163.94285714285715" y="135" width="6.4" height="18" fill="none" stroke="#ffffff" stroke-width="1.35"/><text x="167.14285714285714" y="166" fill="#ffffff" font-family="Arial,Helvetica,sans-serif" font-size="6.2" font-weight="normal" text-anchor="middle">12 A4</text><rect x="188.22857142857143" y="135" width="6.4" height="18" fill="none" stroke="#ffffff" stroke-width="1.35"/><text x="191.42857142857142" y="166" fill="#ffffff" font-family="Arial,Helvetica,sans-serif" font-size="6.2" font-weight="normal" text-anchor="middle">11 B4</text><rect x="212.51428571428573" y="135" width="6.4" height="18" fill="none" stroke="#ffffff" stroke-width="1.35"/><text x="215.71428571428572" y="166" fill="#ffffff" font-family="Arial,Helvetica,sans-serif" font-size="6.2" font-weight="normal" text-anchor="middle">10 S4</text><rect x="236.8" y="135" width="6.4" height="18" fill="none" stroke="#ffffff" stroke-width="1.35"/><text x="240.0" y="166" fill="#ffffff" font-family="Arial,Helvetica,sans-serif" font-size="6.2" font-weight="normal" text-anchor="middle">9 C4</text><path d="M 65 45 H 265 V 135 H 65 V 105 C 79 103, 79 77, 65 75 Z" fill="none" stroke="#ffffff" stroke-width="2.2"/><rect x="105" y="61" width="100" height="56" rx="4" fill="none" stroke="#ffffff" stroke-width="1.7"/><text x="155.0" y="87.0" fill="#ffffff" font-family="Arial,Helvetica,sans-serif" font-size="9" font-weight="bold" text-anchor="middle">4-BIT</text><text x="155.0" y="99.0" fill="#ffffff" font-family="Arial,Helvetica,sans-serif" font-size="6.3" font-weight="normal" text-anchor="middle">FULL ADDER</text><line x1="119" y1="61" x2="119" y2="53" stroke="#ffffff" stroke-width="1.0" stroke-linecap="round"/><line x1="119" y1="117" x2="119" y2="126" stroke="#ffffff" stroke-width="1.0" stroke-linecap="round"/><line x1="141" y1="61" x2="141" y2="53" stroke="#ffffff" stroke-width="1.0" stroke-linecap="round"/><line x1="141" y1="117" x2="141" y2="126" stroke="#ffffff" stroke-width="1.0" stroke-linecap="round"/><line x1="163" y1="61" x2="163" y2="53" stroke="#ffffff" stroke-width="1.0" stroke-linecap="round"/><line x1="163" y1="117" x2="163" y2="126" stroke="#ffffff" stroke-width="1.0" stroke-linecap="round"/><line x1="185" y1="61" x2="185" y2="53" stroke="#ffffff" stroke-width="1.0" stroke-linecap="round"/><line x1="185" y1="117" x2="185" y2="126" stroke="#ffffff" stroke-width="1.0" stroke-linecap="round"/><line x1="93" y1="89" x2="105" y2="89" stroke="#ffffff" stroke-width="1.6" stroke-linecap="round"/><path d="M105,89 L100.7,91.5 M105,89 L100.7,86.5" stroke="#ffffff" stroke-width="1.4" fill="none"/><line x1="205" y1="89" x2="218" y2="89" stroke="#ffffff" stroke-width="1.6" stroke-linecap="round"/><path d="M218,89 L213.7,91.5 M218,89 L213.7,86.5" stroke="#ffffff" stroke-width="1.4" fill="none"/></svg>