<svg xmlns="http://www.w3.org/2000/svg" width="310" height="180" viewBox="0 0 310 180"><rect width="310" height="180" fill="#000"/><g transform="translate(310,180) rotate(180)"><rect width="310" height="180" fill="#000000"/><rect x="66.8" y="27" width="6.4" height="18" fill="none" stroke="#ffffff" stroke-width="1.35"/><text x="70.0" y="21.3" fill="#ffffff" font-family="Arial,Helvetica,sans-serif" font-size="6.1" font-weight="normal" text-anchor="middle">1 1CP</text><rect x="95.13333333333333" y="27" width="6.4" height="18" fill="none" stroke="#ffffff" stroke-width="1.35"/><text x="98.33333333333333" y="21.3" fill="#ffffff" font-family="Arial,Helvetica,sans-serif" font-size="6.1" font-weight="normal" text-anchor="middle">2 1MR</text><rect x="123.46666666666665" y="27" width="6.4" height="18" fill="none" stroke="#ffffff" stroke-width="1.35"/><text x="126.66666666666666" y="21.3" fill="#ffffff" font-family="Arial,Helvetica,sans-serif" font-size="6.1" font-weight="normal" text-anchor="middle">3 1Q0</text><rect x="151.8" y="27" width="6.4" height="18" fill="none" stroke="#ffffff" stroke-width="1.35"/><text x="155.0" y="21.3" fill="#ffffff" font-family="Arial,Helvetica,sans-serif" font-size="6.1" font-weight="normal" text-anchor="middle">4 1Q1</text><rect x="180.13333333333333" y="27" width="6.4" height="18" fill="none" stroke="#ffffff" stroke-width="1.35"/><text x="183.33333333333331" y="21.3" fill="#ffffff" font-family="Arial,Helvetica,sans-serif" font-size="6.1" font-weight="normal" text-anchor="middle">5 1Q2</text><rect x="208.46666666666667" y="27" width="6.4" height="18" fill="none" stroke="#ffffff" stroke-width="1.35"/><text x="211.66666666666666" y="21.3" fill="#ffffff" font-family="Arial,Helvetica,sans-serif" font-size="6.1" font-weight="normal" text-anchor="middle">6 1Q3</text><rect x="236.8" y="27" width="6.4" height="18" fill="none" stroke="#ffffff" stroke-width="1.35"/><text x="240.0" y="21.3" fill="#ffffff" font-family="Arial,Helvetica,sans-serif" font-size="6.1" font-weight="normal" text-anchor="middle">7 GND</text><rect x="66.8" y="135" width="6.4" height="18" fill="none" stroke="#ffffff" stroke-width="1.35"/><text x="70.0" y="166" fill="#ffffff" font-family="Arial,Helvetica,sans-serif" font-size="6.1" font-weight="normal" text-anchor="middle">14 VCC</text><rect x="95.13333333333333" y="135" width="6.4" height="18" fill="none" stroke="#ffffff" stroke-width="1.35"/><text x="98.33333333333333" y="166" fill="#ffffff" font-family="Arial,Helvetica,sans-serif" font-size="6.1" font-weight="normal" text-anchor="middle">13 2CP</text><rect x="123.46666666666665" y="135" width="6.4" height="18" fill="none" stroke="#ffffff" stroke-width="1.35"/><text x="126.66666666666666" y="166" fill="#ffffff" font-family="Arial,Helvetica,sans-serif" font-size="6.1" font-weight="normal" text-anchor="middle">12 2MR</text><rect x="151.8" y="135" width="6.4" height="18" fill="none" stroke="#ffffff" stroke-width="1.35"/><text x="155.0" y="166" fill="#ffffff" font-family="Arial,Helvetica,sans-serif" font-size="6.1" font-weight="normal" text-anchor="middle">11 2Q0</text><rect x="180.13333333333333" y="135" width="6.4" height="18" fill="none" stroke="#ffffff" stroke-width="1.35"/><text x="183.33333333333331" y="166" fill="#ffffff" font-family="Arial,Helvetica,sans-serif" font-size="6.1" font-weight="normal" text-anchor="middle">10 2Q1</text><rect x="208.46666666666667" y="135" width="6.4" height="18" fill="none" stroke="#ffffff" stroke-width="1.35"/><text x="211.66666666666666" y="166" fill="#ffffff" font-family="Arial,Helvetica,sans-serif" font-size="6.1" font-weight="normal" text-anchor="middle">9 2Q2</text><rect x="236.8" y="135" width="6.4" height="18" fill="none" stroke="#ffffff" stroke-width="1.35"/><text x="240.0" y="166" fill="#ffffff" font-family="Arial,Helvetica,sans-serif" font-size="6.1" font-weight="normal" text-anchor="middle">8 2Q3</text><path d="M 65 45 H 265 V 135 H 65 V 105 C 79 103, 79 77, 65 75 Z" fill="none" stroke="#ffffff" stroke-width="2.2"/><rect x="91" y="63" width="55" height="50" rx="4" fill="none" stroke="#ffffff" stroke-width="1.7"/><text x="118.5" y="86.0" fill="#ffffff" font-family="Arial,Helvetica,sans-serif" font-size="9" font-weight="bold" text-anchor="middle">4-BIT</text><text x="118.5" y="98.0" fill="#ffffff" font-family="Arial,Helvetica,sans-serif" font-size="6.3" font-weight="normal" text-anchor="middle">BINARY</text><line x1="81" y1="88" x2="91" y2="88" stroke="#ffffff" stroke-width="1.6" stroke-linecap="round"/><rect x="166" y="63" width="55" height="50" rx="4" fill="none" stroke="#ffffff" stroke-width="1.7"/><text x="193.5" y="86.0" fill="#ffffff" font-family="Arial,Helvetica,sans-serif" font-size="9" font-weight="bold" text-anchor="middle">4-BIT</text><text x="193.5" y="98.0" fill="#ffffff" font-family="Arial,Helvetica,sans-serif" font-size="6.3" font-weight="normal" text-anchor="middle">BINARY</text><line x1="156" y1="88" x2="166" y2="88" stroke="#ffffff" stroke-width="1.6" stroke-linecap="round"/></g></svg>