<svg xmlns="http://www.w3.org/2000/svg" width="310" height="180" viewBox="0 0 310 180"><rect width="310" height="180" fill="#000"/><g transform="translate(310,180) rotate(180)"><rect width="310" height="180" fill="#000000"/><rect x="66.8" y="27" width="6.4" height="18" fill="none" stroke="#ffffff" stroke-width="1.35"/><text x="70.0" y="21.3" fill="#ffffff" font-family="Arial,Helvetica,sans-serif" font-size="5.4" font-weight="normal" text-anchor="middle">1 S0</text><rect x="85.68888888888888" y="27" width="6.4" height="18" fill="none" stroke="#ffffff" stroke-width="1.35"/><text x="88.88888888888889" y="21.3" fill="#ffffff" font-family="Arial,Helvetica,sans-serif" font-size="5.4" font-weight="normal" text-anchor="middle">2 /G1</text><rect x="104.57777777777777" y="27" width="6.4" height="18" fill="none" stroke="#ffffff" stroke-width="1.35"/><text x="107.77777777777777" y="21.3" fill="#ffffff" font-family="Arial,Helvetica,sans-serif" font-size="5.4" font-weight="normal" text-anchor="middle">3 /G2</text><rect x="123.46666666666667" y="27" width="6.4" height="18" fill="none" stroke="#ffffff" stroke-width="1.35"/><text x="126.66666666666667" y="21.3" fill="#ffffff" font-family="Arial,Helvetica,sans-serif" font-size="5.4" font-weight="normal" text-anchor="middle">4 F/QF</text><rect x="142.35555555555555" y="27" width="6.4" height="18" fill="none" stroke="#ffffff" stroke-width="1.35"/><text x="145.55555555555554" y="21.3" fill="#ffffff" font-family="Arial,Helvetica,sans-serif" font-size="5.4" font-weight="normal" text-anchor="middle">5 SL</text><rect x="161.24444444444447" y="27" width="6.4" height="18" fill="none" stroke="#ffffff" stroke-width="1.35"/><text x="164.44444444444446" y="21.3" fill="#ffffff" font-family="Arial,Helvetica,sans-serif" font-size="5.4" font-weight="normal" text-anchor="middle">6 C/QC</text><rect x="180.13333333333335" y="27" width="6.4" height="18" fill="none" stroke="#ffffff" stroke-width="1.35"/><text x="183.33333333333334" y="21.3" fill="#ffffff" font-family="Arial,Helvetica,sans-serif" font-size="5.4" font-weight="normal" text-anchor="middle">7 A/QA</text><rect x="199.02222222222224" y="27" width="6.4" height="18" fill="none" stroke="#ffffff" stroke-width="1.35"/><text x="202.22222222222223" y="21.3" fill="#ffffff" font-family="Arial,Helvetica,sans-serif" font-size="5.4" font-weight="normal" text-anchor="middle">8 QA&#x27;</text><rect x="217.91111111111113" y="27" width="6.4" height="18" fill="none" stroke="#ffffff" stroke-width="1.35"/><text x="221.11111111111111" y="21.3" fill="#ffffff" font-family="Arial,Helvetica,sans-serif" font-size="5.4" font-weight="normal" text-anchor="middle">9 /CLR</text><rect x="236.8" y="27" width="6.4" height="18" fill="none" stroke="#ffffff" stroke-width="1.35"/><text x="240.0" y="21.3" fill="#ffffff" font-family="Arial,Helvetica,sans-serif" font-size="5.4" font-weight="normal" text-anchor="middle">10 GND</text><rect x="66.8" y="135" width="6.4" height="18" fill="none" stroke="#ffffff" stroke-width="1.35"/><text x="70.0" y="166" fill="#ffffff" font-family="Arial,Helvetica,sans-serif" font-size="5.4" font-weight="normal" text-anchor="middle">20 VCC</text><rect x="85.68888888888888" y="135" width="6.4" height="18" fill="none" stroke="#ffffff" stroke-width="1.35"/><text x="88.88888888888889" y="166" fill="#ffffff" font-family="Arial,Helvetica,sans-serif" font-size="5.4" font-weight="normal" text-anchor="middle">19 S1</text><rect x="104.57777777777777" y="135" width="6.4" height="18" fill="none" stroke="#ffffff" stroke-width="1.35"/><text x="107.77777777777777" y="166" fill="#ffffff" font-family="Arial,Helvetica,sans-serif" font-size="5.4" font-weight="normal" text-anchor="middle">18 H/QH</text><rect x="123.46666666666667" y="135" width="6.4" height="18" fill="none" stroke="#ffffff" stroke-width="1.35"/><text x="126.66666666666667" y="166" fill="#ffffff" font-family="Arial,Helvetica,sans-serif" font-size="5.4" font-weight="normal" text-anchor="middle">17 QH&#x27;</text><rect x="142.35555555555555" y="135" width="6.4" height="18" fill="none" stroke="#ffffff" stroke-width="1.35"/><text x="145.55555555555554" y="166" fill="#ffffff" font-family="Arial,Helvetica,sans-serif" font-size="5.4" font-weight="normal" text-anchor="middle">16 G/QG</text><rect x="161.24444444444447" y="135" width="6.4" height="18" fill="none" stroke="#ffffff" stroke-width="1.35"/><text x="164.44444444444446" y="166" fill="#ffffff" font-family="Arial,Helvetica,sans-serif" font-size="5.4" font-weight="normal" text-anchor="middle">15 E/QE</text><rect x="180.13333333333335" y="135" width="6.4" height="18" fill="none" stroke="#ffffff" stroke-width="1.35"/><text x="183.33333333333334" y="166" fill="#ffffff" font-family="Arial,Helvetica,sans-serif" font-size="5.4" font-weight="normal" text-anchor="middle">14 D/QD</text><rect x="199.02222222222224" y="135" width="6.4" height="18" fill="none" stroke="#ffffff" stroke-width="1.35"/><text x="202.22222222222223" y="166" fill="#ffffff" font-family="Arial,Helvetica,sans-serif" font-size="5.4" font-weight="normal" text-anchor="middle">13 B/QB</text><rect x="217.91111111111113" y="135" width="6.4" height="18" fill="none" stroke="#ffffff" stroke-width="1.35"/><text x="221.11111111111111" y="166" fill="#ffffff" font-family="Arial,Helvetica,sans-serif" font-size="5.4" font-weight="normal" text-anchor="middle">12 CLK</text><rect x="236.8" y="135" width="6.4" height="18" fill="none" stroke="#ffffff" stroke-width="1.35"/><text x="240.0" y="166" fill="#ffffff" font-family="Arial,Helvetica,sans-serif" font-size="5.4" font-weight="normal" text-anchor="middle">11 SR</text><path d="M 65 45 H 265 V 135 H 65 V 105 C 79 103, 79 77, 65 75 Z" fill="none" stroke="#ffffff" stroke-width="2.2"/><rect x="95" y="60" width="120" height="60" rx="4" fill="none" stroke="#ffffff" stroke-width="1.7"/><text x="155.0" y="88.0" fill="#ffffff" font-family="Arial,Helvetica,sans-serif" font-size="9" font-weight="bold" text-anchor="middle">8-BIT</text><text x="155.0" y="100.0" fill="#ffffff" font-family="Arial,Helvetica,sans-serif" font-size="6.4" font-weight="normal" text-anchor="middle">UNIVERSAL SHIFT</text><rect x="102.0" y="78" width="10" height="20" rx="1" fill="none" stroke="#ffffff" stroke-width="1.0"/><line x1="112.0" y1="88" x2="115.5" y2="88" stroke="#ffffff" stroke-width="1.6" stroke-linecap="round"/><path d="M115.5,88 L111.2,90.5 M115.5,88 L111.2,85.5" stroke="#ffffff" stroke-width="1.35" fill="none"/><rect x="115.8" y="78" width="10" height="20" rx="1" fill="none" stroke="#ffffff" stroke-width="1.0"/><line x1="125.8" y1="88" x2="129.3" y2="88" stroke="#ffffff" stroke-width="1.6" stroke-linecap="round"/><path d="M129.3,88 L125.0,90.5 M129.3,88 L125.0,85.5" stroke="#ffffff" stroke-width="1.35" fill="none"/><rect x="129.6" y="78" width="10" height="20" rx="1" fill="none" stroke="#ffffff" stroke-width="1.0"/><line x1="139.6" y1="88" x2="143.1" y2="88" stroke="#ffffff" stroke-width="1.6" stroke-linecap="round"/><path d="M143.1,88 L138.8,90.5 M143.1,88 L138.8,85.5" stroke="#ffffff" stroke-width="1.35" fill="none"/><rect x="143.4" y="78" width="10" height="20" rx="1" fill="none" stroke="#ffffff" stroke-width="1.0"/><line x1="153.4" y1="88" x2="156.9" y2="88" stroke="#ffffff" stroke-width="1.6" stroke-linecap="round"/><path d="M156.9,88 L152.6,90.5 M156.9,88 L152.6,85.5" stroke="#ffffff" stroke-width="1.35" fill="none"/><rect x="157.2" y="78" width="10" height="20" rx="1" fill="none" stroke="#ffffff" stroke-width="1.0"/><line x1="167.2" y1="88" x2="170.7" y2="88" stroke="#ffffff" stroke-width="1.6" stroke-linecap="round"/><path d="M170.7,88 L166.4,90.5 M170.7,88 L166.4,85.5" stroke="#ffffff" stroke-width="1.35" fill="none"/><rect x="171.0" y="78" width="10" height="20" rx="1" fill="none" stroke="#ffffff" stroke-width="1.0"/><line x1="181.0" y1="88" x2="184.5" y2="88" stroke="#ffffff" stroke-width="1.6" stroke-linecap="round"/><path d="M184.5,88 L180.2,90.5 M184.5,88 L180.2,85.5" stroke="#ffffff" stroke-width="1.35" fill="none"/><rect x="184.8" y="78" width="10" height="20" rx="1" fill="none" stroke="#ffffff" stroke-width="1.0"/><line x1="194.8" y1="88" x2="198.3" y2="88" stroke="#ffffff" stroke-width="1.6" stroke-linecap="round"/><path d="M198.3,88 L194.0,90.5 M198.3,88 L194.0,85.5" stroke="#ffffff" stroke-width="1.35" fill="none"/><rect x="198.60000000000002" y="78" width="10" height="20" rx="1" fill="none" stroke="#ffffff" stroke-width="1.0"/><line x1="83" y1="72" x2="95" y2="72" stroke="#ffffff" stroke-width="1.6" stroke-linecap="round"/><path d="M95,72 L90.7,74.5 M95,72 L90.7,69.5" stroke="#ffffff" stroke-width="1.35" fill="none"/><line x1="227" y1="108" x2="215" y2="108" stroke="#ffffff" stroke-width="1.6" stroke-linecap="round"/><path d="M215,108 L219.3,105.5 M215,108 L219.3,110.5" stroke="#ffffff" stroke-width="1.35" fill="none"/></g></svg>