<svg xmlns="http://www.w3.org/2000/svg" width="180" height="310" viewBox="0 0 180 310"><rect width="180" height="310" fill="#000"/><g transform="translate(180,0) rotate(90)"><rect width="310" height="180" fill="#000000"/><rect x="66.8" y="27" width="6.4" height="18" fill="none" stroke="#ffffff" stroke-width="1.35"/><text x="70.0" y="21.3" fill="#ffffff" font-family="Arial,Helvetica,sans-serif" font-size="6.2" font-weight="normal" text-anchor="middle">1 1A</text><rect x="95.13333333333333" y="27" width="6.4" height="18" fill="none" stroke="#ffffff" stroke-width="1.35"/><text x="98.33333333333333" y="21.3" fill="#ffffff" font-family="Arial,Helvetica,sans-serif" font-size="6.2" font-weight="normal" text-anchor="middle">2 1B</text><rect x="123.46666666666665" y="27" width="6.4" height="18" fill="none" stroke="#ffffff" stroke-width="1.35"/><text x="126.66666666666666" y="21.3" fill="#ffffff" font-family="Arial,Helvetica,sans-serif" font-size="6.2" font-weight="normal" text-anchor="middle">3 1Y</text><rect x="151.8" y="27" width="6.4" height="18" fill="none" stroke="#ffffff" stroke-width="1.35"/><text x="155.0" y="21.3" fill="#ffffff" font-family="Arial,Helvetica,sans-serif" font-size="6.2" font-weight="normal" text-anchor="middle">4 2A</text><rect x="180.13333333333333" y="27" width="6.4" height="18" fill="none" stroke="#ffffff" stroke-width="1.35"/><text x="183.33333333333331" y="21.3" fill="#ffffff" font-family="Arial,Helvetica,sans-serif" font-size="6.2" font-weight="normal" text-anchor="middle">5 2B</text><rect x="208.46666666666667" y="27" width="6.4" height="18" fill="none" stroke="#ffffff" stroke-width="1.35"/><text x="211.66666666666666" y="21.3" fill="#ffffff" font-family="Arial,Helvetica,sans-serif" font-size="6.2" font-weight="normal" text-anchor="middle">6 2Y</text><rect x="236.8" y="27" width="6.4" height="18" fill="none" stroke="#ffffff" stroke-width="1.35"/><text x="240.0" y="21.3" fill="#ffffff" font-family="Arial,Helvetica,sans-serif" font-size="6.2" font-weight="normal" text-anchor="middle">7 GND</text><rect x="66.8" y="135" width="6.4" height="18" fill="none" stroke="#ffffff" stroke-width="1.35"/><text x="70.0" y="166" fill="#ffffff" font-family="Arial,Helvetica,sans-serif" font-size="6.2" font-weight="normal" text-anchor="middle">14 VCC</text><rect x="95.13333333333333" y="135" width="6.4" height="18" fill="none" stroke="#ffffff" stroke-width="1.35"/><text x="98.33333333333333" y="166" fill="#ffffff" font-family="Arial,Helvetica,sans-serif" font-size="6.2" font-weight="normal" text-anchor="middle">13 4B</text><rect x="123.46666666666665" y="135" width="6.4" height="18" fill="none" stroke="#ffffff" stroke-width="1.35"/><text x="126.66666666666666" y="166" fill="#ffffff" font-family="Arial,Helvetica,sans-serif" font-size="6.2" font-weight="normal" text-anchor="middle">12 4A</text><rect x="151.8" y="135" width="6.4" height="18" fill="none" stroke="#ffffff" stroke-width="1.35"/><text x="155.0" y="166" fill="#ffffff" font-family="Arial,Helvetica,sans-serif" font-size="6.2" font-weight="normal" text-anchor="middle">11 4Y</text><rect x="180.13333333333333" y="135" width="6.4" height="18" fill="none" stroke="#ffffff" stroke-width="1.35"/><text x="183.33333333333331" y="166" fill="#ffffff" font-family="Arial,Helvetica,sans-serif" font-size="6.2" font-weight="normal" text-anchor="middle">10 3B</text><rect x="208.46666666666667" y="135" width="6.4" height="18" fill="none" stroke="#ffffff" stroke-width="1.35"/><text x="211.66666666666666" y="166" fill="#ffffff" font-family="Arial,Helvetica,sans-serif" font-size="6.2" font-weight="normal" text-anchor="middle">9 3A</text><rect x="236.8" y="135" width="6.4" height="18" fill="none" stroke="#ffffff" stroke-width="1.35"/><text x="240.0" y="166" fill="#ffffff" font-family="Arial,Helvetica,sans-serif" font-size="6.2" font-weight="normal" text-anchor="middle">8 3Y</text><path d="M 65 45 H 265 V 135 H 65 V 105 C 79 103, 79 77, 65 75 Z" fill="none" stroke="#ffffff" stroke-width="2.2"/><path d="M97,59 C110,59 117,61 124,69.5 C117,78 110,80 97,80 C103,74.12 103,64.88 97,59 Z" fill="none" stroke="#ffffff" stroke-width="1.5"/><path d="M92,59 C98,64.88 98,74.12 92,80" fill="none" stroke="#ffffff" stroke-width="1.3"/><circle cx="126.4" cy="69.5" r="2.3" fill="#000000" stroke="#ffffff" stroke-width="1.2"/><line x1="82" y1="65" x2="92" y2="65" stroke="#ffffff" stroke-width="1.0" stroke-linecap="round"/><line x1="82" y1="74" x2="92" y2="74" stroke="#ffffff" stroke-width="1.0" stroke-linecap="round"/><line x1="129" y1="69.5" x2="141" y2="69.5" stroke="#ffffff" stroke-width="1.0" stroke-linecap="round"/><path d="M175,59 C188,59 195,61 202,69.5 C195,78 188,80 175,80 C181,74.12 181,64.88 175,59 Z" fill="none" stroke="#ffffff" stroke-width="1.5"/><path d="M170,59 C176,64.88 176,74.12 170,80" fill="none" stroke="#ffffff" stroke-width="1.3"/><circle cx="204.4" cy="69.5" r="2.3" fill="#000000" stroke="#ffffff" stroke-width="1.2"/><line x1="160" y1="65" x2="170" y2="65" stroke="#ffffff" stroke-width="1.0" stroke-linecap="round"/><line x1="160" y1="74" x2="170" y2="74" stroke="#ffffff" stroke-width="1.0" stroke-linecap="round"/><line x1="207" y1="69.5" x2="219" y2="69.5" stroke="#ffffff" stroke-width="1.0" stroke-linecap="round"/><path d="M97,96 C110,96 117,98 124,106.5 C117,115 110,117 97,117 C103,111.12 103,101.88 97,96 Z" fill="none" stroke="#ffffff" stroke-width="1.5"/><path d="M92,96 C98,101.88 98,111.12 92,117" fill="none" stroke="#ffffff" stroke-width="1.3"/><circle cx="126.4" cy="106.5" r="2.3" fill="#000000" stroke="#ffffff" stroke-width="1.2"/><line x1="82" y1="102" x2="92" y2="102" stroke="#ffffff" stroke-width="1.0" stroke-linecap="round"/><line x1="82" y1="111" x2="92" y2="111" stroke="#ffffff" stroke-width="1.0" stroke-linecap="round"/><line x1="129" y1="106.5" x2="141" y2="106.5" stroke="#ffffff" stroke-width="1.0" stroke-linecap="round"/><path d="M175,96 C188,96 195,98 202,106.5 C195,115 188,117 175,117 C181,111.12 181,101.88 175,96 Z" fill="none" stroke="#ffffff" stroke-width="1.5"/><path d="M170,96 C176,101.88 176,111.12 170,117" fill="none" stroke="#ffffff" stroke-width="1.3"/><circle cx="204.4" cy="106.5" r="2.3" fill="#000000" stroke="#ffffff" stroke-width="1.2"/><line x1="160" y1="102" x2="170" y2="102" stroke="#ffffff" stroke-width="1.0" stroke-linecap="round"/><line x1="160" y1="111" x2="170" y2="111" stroke="#ffffff" stroke-width="1.0" stroke-linecap="round"/><line x1="207" y1="106.5" x2="219" y2="106.5" stroke="#ffffff" stroke-width="1.0" stroke-linecap="round"/></g></svg>